HIERARCHY
ROOT Hips
{
	OFFSET 0.000000 0.000000 0.000000
	CHANNELS 6 Xposition Yposition Zposition Zrotation Yrotation Xrotation 
	JOINT LowerBack
	{
		OFFSET 0.000000 0.000000 0.000000
		CHANNELS 3 Zrotation Yrotation Xrotation
		JOINT Spine
		{
			OFFSET 0.028270 2.035590 -0.193380
			CHANNELS 3 Zrotation Yrotation Xrotation
			JOINT Spine1
			{
				OFFSET 0.056720 2.048850 -0.042750
				CHANNELS 3 Zrotation Yrotation Xrotation
				JOINT Neck
				{
					OFFSET 0.000000 0.000000 0.000000
					CHANNELS 3 Zrotation Yrotation Xrotation
					JOINT Neck1
					{
						OFFSET -0.054170 1.746240 0.172020
						CHANNELS 3 Zrotation Yrotation Xrotation
						JOINT Head
						{
							OFFSET 0.104070 1.761360 -0.123970
							CHANNELS 3 Zrotation Yrotation Xrotation
							End Site
							{
								OFFSET 0.000000 0.000000 0.000000
							}
						}
					}
				}
				JOINT LeftShoulder
				{
					OFFSET 0.000000 0.000000 0.000000
					CHANNELS 3 Zrotation Yrotation Xrotation
					JOINT LeftArm
					{
						OFFSET 3.362410 1.200890 -0.311210
						CHANNELS 3 Zrotation Yrotation Xrotation
						JOINT LeftForeArm
						{
							OFFSET 4.983000 -0.000000 -0.000000
							CHANNELS 3 Zrotation Yrotation Xrotation
							JOINT LeftHand
							{
								OFFSET 3.483560 -0.000000 -0.000000
								CHANNELS 3 Zrotation Yrotation Xrotation
								JOINT LeftFingerBase
								{
									OFFSET 0.000000 0.000000 0.000000
									CHANNELS 3 Zrotation Yrotation Xrotation
									JOINT LeftHandIndex1
									{
										OFFSET 0.715260 -0.000000 -0.000000
										CHANNELS 3 Zrotation Yrotation Xrotation
										End Site
										{
											OFFSET 0.000000 0.000000 0.000000
										}
									}
								}
								JOINT LThumb
								{
									OFFSET 0.000000 0.000000 0.000000
									CHANNELS 3 Zrotation Yrotation Xrotation
									End Site
									{
										OFFSET 0.000000 0.000000 0.000000
									}
								}
							}
						}
					}
				}
				JOINT RightShoulder
				{
					OFFSET 0.000000 0.000000 0.000000
					CHANNELS 3 Zrotation Yrotation Xrotation
					JOINT RightArm
					{
						OFFSET -3.136600 1.374050 -0.404650
						CHANNELS 3 Zrotation Yrotation Xrotation
						JOINT RightForeArm
						{
							OFFSET -5.241900 -0.000000 -0.000000
							CHANNELS 3 Zrotation Yrotation Xrotation
							JOINT RightHand
							{
								OFFSET -3.444170 -0.000000 -0.000000
								CHANNELS 3 Zrotation Yrotation Xrotation
								JOINT RightFingerBase
								{
									OFFSET 0.000000 0.000000 0.000000
									CHANNELS 3 Zrotation Yrotation Xrotation
									JOINT RightHandIndex1
									{
										OFFSET -0.622530 -0.000000 -0.000000
										CHANNELS 3 Zrotation Yrotation Xrotation
										End Site
										{
											OFFSET 0.000000 0.000000 0.000000
										}
									}
								}
								JOINT RThumb
								{
									OFFSET 0.000000 0.000000 0.000000
									CHANNELS 3 Zrotation Yrotation Xrotation
									End Site
									{
										OFFSET 0.000000 0.000000 0.000000
									}
								}
							}
						}
					}
				}
			}
		}
	}
}
}
MOTION
Frames: 12
Frame Time: 0.008333
26.609164 16.069199 4.868800 -105.072756 -89.760345 131.012253 11.709714 -4.211434 0.304004 1.488149 -4.930319 -2.529038 -7.900021 -4.936169 1.984501 11.731721 -9.034096 -6.209352 -4.148727 -0.319301 0.237833 0.000000 0.000000 0.000000 -0.837277 2.574085 3.095328 -29.846162 -9.680499 11.655972 -1.712399 -65.516922 0.009855 -3.503408 0.927605 -0.021702 -0.113145 0.148853 0.000000 0.000000 0.000000 0.000000 0.000000 0.000000 0.000000 20.866890 -9.733642 0.868055 57.442764 -8.206186 -7.912726 3.619316 29.749173 0.013847 2.533925 7.241516 0.156214 0.088121 -0.043745 0.000000 0.000000 0.000000 0.000000 0.000000 0.000000 0.000000 
26.393774 16.087220 4.833754 -100.060967 -89.801145 126.080267 12.024061 -4.250775 0.349892 1.548473 -4.983072 -2.538426 -7.905096 -4.991982 1.952704 11.765111 -8.774742 -6.184704 -4.220495 -0.324427 0.241012 0.000000 0.000000 0.000000 -0.810064 2.612472 3.074812 -30.774615 -8.760630 11.764879 -1.745360 -65.345136 0.009394 -3.457702 0.956077 -0.022381 -0.116039 0.144227 0.000000 0.000000 0.000000 0.000000 0.000000 0.000000 0.000000 21.165467 -9.528645 0.873762 57.118101 -7.421300 -7.884990 3.640433 29.326331 0.013711 2.607550 7.210910 0.160210 0.087232 -0.043148 0.000000 0.000000 0.000000 0.000000 0.000000 0.000000 0.000000 
26.179765 16.109109 4.797172 -95.833600 -89.803299 121.903457 12.314763 -4.278791 0.421806 1.601400 -5.021278 -2.544197 -7.914212 -5.033740 1.911889 11.823704 -8.505838 -6.143259 -4.292963 -0.329704 0.248789 0.000000 0.000000 0.000000 -0.742859 2.587994 3.050238 -31.746553 -7.770104 11.910820 -1.776732 -65.132739 0.008955 -3.432490 0.982723 -0.023068 -0.118029 0.138975 0.000000 0.000000 0.000000 0.000000 0.000000 0.000000 0.000000 21.488837 -9.314336 0.884379 56.792903 -6.586811 -7.805460 3.661547 28.907006 0.013580 2.690542 7.181044 0.164907 0.086311 -0.042610 0.000000 0.000000 0.000000 0.000000 0.000000 0.000000 0.000000 
25.967532 16.134540 4.758901 -92.404866 -89.781778 118.500436 12.571650 -4.297777 0.514964 1.645328 -5.047085 -2.543740 -7.927469 -5.062997 1.874187 11.907955 -8.235453 -6.095114 -4.364305 -0.334869 0.258238 0.000000 0.000000 0.000000 -0.655921 2.563053 3.023942 -32.711956 -6.824360 12.131539 -1.809008 -64.844150 0.008528 -3.422002 1.007315 -0.023860 -0.119441 0.133270 0.000000 0.000000 0.000000 0.000000 0.000000 0.000000 0.000000 21.837921 -9.099160 0.894831 56.474194 -5.690942 -7.679102 3.682336 28.485721 0.013457 2.781185 7.154009 0.170004 0.085344 -0.042139 0.000000 0.000000 0.000000 0.000000 0.000000 0.000000 0.000000 
25.757686 16.163277 4.718973 -89.751293 -89.748854 115.848032 12.784760 -4.308398 0.624353 1.678243 -5.061099 -2.538076 -7.944677 -5.080365 1.839256 12.014043 -7.960344 -6.037983 -4.434105 -0.339919 0.270088 0.000000 0.000000 0.000000 -0.552930 2.532317 2.997470 -33.655166 -5.924757 12.431629 -1.841711 -64.488155 0.008119 -3.431838 1.031008 -0.024758 -0.120278 0.127066 0.000000 0.000000 0.000000 0.000000 0.000000 0.000000 0.000000 22.207179 -8.879853 0.905719 56.170881 -4.742786 -7.515390 3.702807 28.058527 0.013347 2.877493 7.132064 0.175601 0.084340 -0.041779 0.000000 0.000000 0.000000 0.000000 0.000000 0.000000 0.000000 
25.550557 16.195090 4.677490 -87.860547 -89.713133 113.936148 12.945763 -4.310373 0.745337 1.698495 -5.063030 -2.529275 -7.964845 -5.085780 1.802812 12.136932 -7.691786 -5.968024 -4.501944 -0.344901 0.285614 0.000000 0.000000 0.000000 -0.427806 2.451513 2.969601 -34.584327 -5.007350 12.788150 -1.872096 -64.097191 0.007738 -3.474388 1.053952 -0.025963 -0.120229 0.120212 0.000000 0.000000 0.000000 0.000000 0.000000 0.000000 0.000000 22.589195 -8.669304 0.920955 55.884946 -3.732523 -7.292639 3.723683 27.606739 0.013273 2.964691 7.124119 0.180898 0.083433 -0.041619 0.000000 0.000000 0.000000 0.000000 0.000000 0.000000 0.000000 
25.346089 16.229873 4.634961 -86.704283 -89.675848 112.743077 13.062015 -4.304288 0.873203 1.708007 -5.054210 -2.516447 -7.988303 -5.080215 1.772036 12.267437 -7.397502 -5.888581 -4.567209 -0.349678 0.303580 0.000000 0.000000 0.000000 -0.315424 2.403466 2.946702 -35.450288 -4.193862 13.246687 -1.904643 -63.640279 0.007363 -3.537374 1.077010 -0.027472 -0.120015 0.112973 0.000000 0.000000 0.000000 0.000000 0.000000 0.000000 0.000000 22.972298 -8.430307 0.935133 55.630386 -2.695887 -7.068013 3.743892 27.149374 0.013213 3.064275 7.124202 0.187195 0.082414 -0.041630 0.000000 0.000000 0.000000 0.000000 0.000000 0.000000 0.000000 
25.144492 16.267518 4.591586 -86.334641 -89.639778 112.324090 13.130317 -4.288921 1.004416 1.706335 -5.033506 -2.501726 -8.013819 -5.062818 1.741607 12.401049 -7.087969 -5.796083 -4.629811 -0.354317 0.325141 0.000000 0.000000 0.000000 -0.205899 2.343942 2.926877 -36.273467 -3.415172 13.778027 -1.936888 -63.148130 0.006997 -3.629216 1.099783 -0.029184 -0.119359 0.105250 0.000000 0.000000 0.000000 0.000000 0.000000 0.000000 0.000000 23.350556 -8.173793 0.952347 55.404182 -1.627362 -6.814675 3.763921 26.678440 0.013185 3.164855 7.136348 0.193892 0.081394 -0.041878 -0.000000 0.000000 0.000000 0.000000 0.000000 0.000000 0.000000 
24.945698 16.308075 4.547927 -86.768459 -89.598616 112.699461 13.161216 -4.264167 1.136242 1.696409 -5.001430 -2.485301 -8.039657 -5.034068 1.713400 12.530004 -6.770477 -5.694276 -4.688755 -0.358723 0.349231 0.000000 0.000000 0.000000 -0.109825 2.281913 2.909547 -37.054015 -2.673791 14.373415 -1.968841 -62.628002 0.006628 -3.748173 1.121358 -0.031200 -0.118317 0.097128 0.000000 0.000000 0.000000 0.000000 0.000000 0.000000 0.000000 23.712947 -7.906364 0.972885 55.202253 -0.510900 -6.509497 3.784311 26.183591 0.013205 3.258603 7.168321 0.200791 0.080446 -0.042399 -0.000000 0.000000 0.000000 0.000000 0.000000 0.000000 0.000000 
24.749472 16.351641 4.504406 -88.035229 -89.545288 113.904828 13.165115 -4.229245 1.265024 1.680670 -4.957889 -2.468695 -8.065612 -4.993990 1.685076 12.648227 -6.423054 -5.579368 -4.744245 -0.362933 0.376821 0.000000 0.000000 0.000000 -0.037472 2.231844 2.897231 -37.788521 -1.981710 15.032156 -2.001771 -62.079198 0.006241 -3.887295 1.141166 -0.033317 -0.117141 0.088739 0.000000 0.000000 0.000000 0.000000 0.000000 0.000000 0.000000 24.050548 -7.602658 0.996277 55.028057 0.618881 -6.175938 3.804407 25.690010 0.013260 3.361301 7.213439 0.208590 0.079453 -0.043172 -0.000000 0.000000 0.000000 0.000000 0.000000 0.000000 0.000000 
24.555702 16.398304 4.461446 -90.133150 -89.469857 115.942838 13.153052 -4.182761 1.387883 1.661571 -4.902169 -2.453996 -8.091180 -4.942105 1.651746 12.750230 -6.026222 -5.445175 -4.796270 -0.367000 0.409623 0.000000 0.000000 0.000000 0.006228 2.190894 2.891331 -38.483816 -1.322678 15.741377 -2.035986 -61.508060 0.005828 -4.040596 1.158603 -0.035735 -0.115943 0.080179 0.000000 0.000000 0.000000 0.000000 0.000000 0.000000 0.000000 24.352857 -7.240191 1.023200 54.884033 1.726651 -5.831927 3.823747 25.223955 0.013343 3.488257 7.265318 0.218289 0.078320 -0.044186 -0.000000 0.000000 0.000000 0.000000 0.000000 0.000000 0.000000 
24.364005 16.448124 4.419381 -92.999029 -89.361403 118.754143 13.133592 -4.123331 1.504768 1.641644 -4.833281 -2.438658 -8.113372 -4.877037 1.623212 12.835000 -5.630528 -5.308226 -4.843052 -0.370687 0.443087 0.000000 0.000000 0.000000 0.021310 2.172609 2.885136 -39.156326 -0.706095 16.480990 -2.070925 -60.909302 0.005381 -4.202358 1.172776 -0.038055 -0.114609 0.071557 0.000000 0.000000 0.000000 0.000000 0.000000 0.000000 0.000000 24.620277 -6.871146 1.052924 54.748439 2.886534 -5.381151 3.843879 24.762282 0.013489 3.610633 7.340138 0.228590 0.077315 -0.045456 -0.000000 0.000000 0.000000 0.000000 0.000000 0.000000 0.000000 
